<?xml version="1.0" encoding="utf-8"?>
<!-- Generator: Adobe Illustrator 16.0.0, SVG Export Plug-In . SVG Version: 6.00 Build 0)  -->
<!DOCTYPE svg PUBLIC "-//W3C//DTD SVG 1.1//EN" "http://www.w3.org/Graphics/SVG/1.1/DTD/svg11.dtd">
<svg version="1.1" id="Layer_1" xmlns="http://www.w3.org/2000/svg" xmlns:xlink="http://www.w3.org/1999/xlink" x="0px" y="0px"
	 width="57.25px" height="56.331px" viewBox="0 0 57.25 56.331" enable-background="new 0 0 57.25 56.331" xml:space="preserve">
<path fill="#0075BF" d="M57.25,20.565L38.205,1.963c0,0,0.012,24.779,0.094,26.747c0.184,5.126-5.138,10.689-13.378,8.225
	l0.005,0.336l19.757,17.843c0,0,3.801,2.543,8.091,0.276c3.353-1.788,4.501-4.879,4.439-6.191
	C57.168,48.085,57.25,20.565,57.25,20.565 M32.309,19.396v-0.327L12.576,1.198c0,0-3.817-2.517-8.098-0.254
	c-3.345,1.785-4.49,4.884-4.427,6.188C0.098,8.242,0,35.758,0,35.758l19.046,18.617c0,0-0.019-24.791-0.078-26.766
	C18.788,22.491,24.084,16.927,32.309,19.396"/>
<g>
</g>
<g>
</g>
<g>
</g>
<g>
</g>
<g>
</g>
<g>
</g>
</svg>
